<svg xmlns="http://www.w3.org/2000/svg" viewBox="0 0 400 400" width="100%" height="100%">
      <defs>
        <linearGradient id="alBg" x1="0%" y1="0%" x2="100%" y2="100%">
          <stop offset="0%" stop-color="#E8F5E9"/>
          <stop offset="100%" stop-color="#C8E6C9"/>
        </linearGradient>
        <linearGradient id="aloeLeaf" x1="0%" y1="0%" x2="100%" y2="0%">
          <stop offset="0%" stop-color="#66BB6A"/>
          <stop offset="50%" stop-color="#43A047"/>
          <stop offset="100%" stop-color="#2E7D32"/>
        </linearGradient>
        <filter id="shadow" x="-10%" y="-10%" width="120%" height="120%">
          <feDropShadow dx="0" dy="8" stdDeviation="6" flood-opacity="0.15"/>
        </filter>
      </defs>
      <rect width="400" height="400" rx="24" fill="url(#alBg)"/>
      <ellipse cx="200" cy="360" rx="80" ry="12" fill="#000000" opacity="0.1"/>
      <!-- Aloe Blades with Spikes -->
      <g filter="url(#shadow)">
        <!-- Center Spike -->
        <path d="M190,260 Q195,130 200,60 Q205,130 210,260 Z" fill="url(#aloeLeaf)"/>
        <!-- Left Spikes -->
        <path d="M180,260 Q145,160 120,90 Q170,165 190,260 Z" fill="url(#aloeLeaf)"/>
        <path d="M170,260 Q115,190 70,150 Q145,210 180,260 Z" fill="url(#aloeLeaf)"/>
        <path d="M165,260 Q90,230 40,210 Q120,240 170,260 Z" fill="url(#aloeLeaf)"/>
        <!-- Right Spikes -->
        <path d="M220,260 Q255,160 280,90 Q230,165 210,260 Z" fill="url(#aloeLeaf)"/>
        <path d="M230,260 Q285,190 330,150 Q255,210 220,260 Z" fill="url(#aloeLeaf)"/>
        <path d="M235,260 Q310,230 360,210 Q280,240 230,260 Z" fill="url(#aloeLeaf)"/>
      </g>
      <!-- Terracotta Pot -->
      <g filter="url(#shadow)">
        <polygon points="140,255 260,255 245,345 155,345" fill="#D87A56"/>
        <ellipse cx="200" cy="255" rx="60" ry="12" fill="#BF613B"/>
        <ellipse cx="200" cy="255" rx="52" ry="8" fill="#5D4037"/>
        <rect x="135" y="247" width="130" height="14" rx="5" fill="#E08E6D"/>
      </g>
    </svg>