<svg xmlns="http://www.w3.org/2000/svg" viewBox="0 0 400 400" width="100%" height="100%">
      <defs>
        <linearGradient id="ceBg" x1="0%" y1="0%" x2="100%" y2="100%">
          <stop offset="0%" stop-color="#FCE4EC"/>
          <stop offset="100%" stop-color="#F8BBD0"/>
        </linearGradient>
        <linearGradient id="pinkGrad" x1="0%" y1="0%" x2="0%" y2="100%">
          <stop offset="0%" stop-color="#F06292"/>
          <stop offset="50%" stop-color="#2E7D32"/>
          <stop offset="100%" stop-color="#1B5E20"/>
        </linearGradient>
        <filter id="shadow" x="-10%" y="-10%" width="120%" height="120%">
          <feDropShadow dx="0" dy="8" stdDeviation="6" flood-opacity="0.15"/>
        </filter>
      </defs>
      <rect width="400" height="400" rx="24" fill="url(#ceBg)"/>
      <ellipse cx="200" cy="360" rx="80" ry="12" fill="#000000" opacity="0.1"/>
      <!-- Chinese Evergreen Variegated Leaves -->
      <!-- Center Leaf -->
      <g filter="url(#shadow)" transform="translate(200, 70)">
        <path d="M0,0 C-30,-20 -35,-80 0,-110 C35,-80 30,-20 0,0 Z" fill="#2E7D32"/>
        <path d="M0,0 C-15,-20 -20,-75 0,-100 C20,-75 15,-20 0,0 Z" fill="#F48FB1"/>
        <path d="M0,0 L0,-95" stroke="#EC407A" stroke-width="2.5"/>
      </g>
      <!-- Left Leaf -->
      <g filter="url(#shadow)" transform="translate(150, 110) rotate(-35)">
        <path d="M0,0 C-30,-20 -35,-80 0,-110 C35,-80 30,-20 0,0 Z" fill="#2E7D32"/>
        <path d="M0,0 C-15,-20 -20,-75 0,-100 C20,-75 15,-20 0,0 Z" fill="#F48FB1"/>
        <path d="M0,0 L0,-95" stroke="#EC407A" stroke-width="2.5"/>
      </g>
      <!-- Right Leaf -->
      <g filter="url(#shadow)" transform="translate(250, 110) rotate(35)">
        <path d="M0,0 C-30,-20 -35,-80 0,-110 C35,-80 30,-20 0,0 Z" fill="#2E7D32"/>
        <path d="M0,0 C-15,-20 -20,-75 0,-100 C20,-75 15,-20 0,0 Z" fill="#F48FB1"/>
        <path d="M0,0 L0,-95" stroke="#EC407A" stroke-width="2.5"/>
      </g>
      <!-- Wide Left Leaf -->
      <g filter="url(#shadow)" transform="translate(120, 170) rotate(-65)">
        <path d="M0,0 C-25,-15 -30,-70 0,-95 C30,-70 25,-15 0,0 Z" fill="#2E7D32"/>
        <path d="M0,0 C-12,-15 -15,-65 0,-85 C15,-65 12,-15 0,0 Z" fill="#F48FB1"/>
      </g>
      <!-- Wide Right Leaf -->
      <g filter="url(#shadow)" transform="translate(280, 170) rotate(65)">
        <path d="M0,0 C-25,-15 -30,-70 0,-95 C30,-70 25,-15 0,0 Z" fill="#2E7D32"/>
        <path d="M0,0 C-12,-15 -15,-65 0,-85 C15,-65 12,-15 0,0 Z" fill="#F48FB1"/>
      </g>
      <!-- Pot -->
      <g filter="url(#shadow)">
        <polygon points="140,250 260,250 245,345 155,345" fill="#E8EAF6"/>
        <ellipse cx="200" cy="250" rx="60" ry="11" fill="#FFFFFF"/>
        <ellipse cx="200" cy="250" rx="52" ry="7" fill="#4E342E"/>
        <rect x="135" y="242" width="130" height="14" rx="5" fill="#C5CAE9"/>
      </g>
    </svg>