<svg xmlns="http://www.w3.org/2000/svg" viewBox="0 0 400 400" width="100%" height="100%">
      <defs>
        <linearGradient id="echBg" x1="0%" y1="0%" x2="100%" y2="100%">
          <stop offset="0%" stop-color="#E0F7FA"/>
          <stop offset="100%" stop-color="#B2EBF2"/>
        </linearGradient>
        <linearGradient id="echLeaf" x1="0%" y1="0%" x2="0%" y2="100%">
          <stop offset="0%" stop-color="#F48FB1"/>
          <stop offset="30%" stop-color="#80CBC4"/>
          <stop offset="100%" stop-color="#00897B"/>
        </linearGradient>
        <filter id="shadow" x="-10%" y="-10%" width="120%" height="120%">
          <feDropShadow dx="0" dy="6" stdDeviation="4" flood-opacity="0.15"/>
        </filter>
      </defs>
      <rect width="400" height="400" rx="24" fill="url(#echBg)"/>
      <ellipse cx="200" cy="360" rx="80" ry="12" fill="#000000" opacity="0.1"/>
      <!-- Symmetrical Rosette -->
      <g filter="url(#shadow)" transform="translate(200, 190)">
        <!-- Outer ring -->
        <path d="M0,0 C-30,-20 -35,-80 0,-100 C35,-80 30,-20 0,0 Z" transform="rotate(0)" fill="url(#echLeaf)"/>
        <path d="M0,0 C-30,-20 -35,-80 0,-100 C35,-80 30,-20 0,0 Z" transform="rotate(45)" fill="url(#echLeaf)"/>
        <path d="M0,0 C-30,-20 -35,-80 0,-100 C35,-80 30,-20 0,0 Z" transform="rotate(90)" fill="url(#echLeaf)"/>
        <path d="M0,0 C-30,-20 -35,-80 0,-100 C35,-80 30,-20 0,0 Z" transform="rotate(135)" fill="url(#echLeaf)"/>
        <path d="M0,0 C-30,-20 -35,-80 0,-100 C35,-80 30,-20 0,0 Z" transform="rotate(180)" fill="url(#echLeaf)"/>
        <path d="M0,0 C-30,-20 -35,-80 0,-100 C35,-80 30,-20 0,0 Z" transform="rotate(225)" fill="url(#echLeaf)"/>
        <path d="M0,0 C-30,-20 -35,-80 0,-100 C35,-80 30,-20 0,0 Z" transform="rotate(270)" fill="url(#echLeaf)"/>
        <path d="M0,0 C-30,-20 -35,-80 0,-100 C35,-80 30,-20 0,0 Z" transform="rotate(315)" fill="url(#echLeaf)"/>
        <!-- Inner ring -->
        <path d="M0,0 C-20,-15 -25,-55 0,-70 C25,-55 20,-15 0,0 Z" transform="rotate(22.5)" fill="#80CBC4"/>
        <path d="M0,0 C-20,-15 -25,-55 0,-70 C25,-55 20,-15 0,0 Z" transform="rotate(67.5)" fill="#80CBC4"/>
        <path d="M0,0 C-20,-15 -25,-55 0,-70 C25,-55 20,-15 0,0 Z" transform="rotate(112.5)" fill="#80CBC4"/>
        <path d="M0,0 C-20,-15 -25,-55 0,-70 C25,-55 20,-15 0,0 Z" transform="rotate(157.5)" fill="#80CBC4"/>
        <path d="M0,0 C-20,-15 -25,-55 0,-70 C25,-55 20,-15 0,0 Z" transform="rotate(202.5)" fill="#80CBC4"/>
        <path d="M0,0 C-20,-15 -25,-55 0,-70 C25,-55 20,-15 0,0 Z" transform="rotate(247.5)" fill="#80CBC4"/>
        <path d="M0,0 C-20,-15 -25,-55 0,-70 C25,-55 20,-15 0,0 Z" transform="rotate(292.5)" fill="#80CBC4"/>
        <path d="M0,0 C-20,-15 -25,-55 0,-70 C25,-55 20,-15 0,0 Z" transform="rotate(337.5)" fill="#80CBC4"/>
        <!-- Center Core -->
        <circle cx="0" cy="0" r="15" fill="#F48FB1"/>
      </g>
      <!-- Modern Shallow Ceramic Bowl Pot -->
      <g filter="url(#shadow)">
        <polygon points="130,265 270,265 250,345 150,345" fill="#ECEFF1"/>
        <ellipse cx="200" cy="265" rx="70" ry="14" fill="#CFD8DC"/>
        <ellipse cx="200" cy="265" rx="62" ry="10" fill="#455A64"/>
      </g>
    </svg>